<?xml version="1.0" standalone="no"?><!DOCTYPE svg PUBLIC "-//W3C//DTD SVG 1.1//EN" "http://www.w3.org/Graphics/SVG/1.1/DTD/svg11.dtd"><svg t="1711882111883" class="icon" viewBox="0 0 1024 1024" version="1.1" xmlns="http://www.w3.org/2000/svg" p-id="4557" width="200" height="200" xmlns:xlink="http://www.w3.org/1999/xlink"><path d="M1001.24672 318.57664H705.42336V22.75328C705.42336 10.24 695.18336 0 682.67008 0H22.75328C10.24 0 0 10.24 0 22.75328v659.90656c0 12.51328 10.24 22.75328 22.75328 22.75328h295.82336v295.82336c0 12.51328 10.24 22.75328 22.75328 22.75328h659.90656c12.51328 0 22.75328-10.24 22.75328-22.75328V341.32992c0.01024-12.51328-10.22976-22.75328-22.74304-22.75328z m-682.67008 22.75328v267.37664H96.70656v-512h512v221.87008H341.32992c-12.51328 0-22.75328 10.24-22.75328 22.75328z m290.12992 73.96352v193.41312H415.29344V415.29344h193.41312z m318.58688 512h-512V705.42336h267.37664c12.51328 0 22.75328-10.24 22.75328-22.75328V415.29344h221.87008v512z m0 0" fill="#bfbfbf" p-id="4558"></path></svg>